REM DIRINDEX 1\6,1\2\7,1\2\8,1\2\9,1\3\10,1\3\11,1\4\12,1\4\13,1\4\14,1\5\15,1\5\16,1\5\17
REM DIRNAME cjc041,folder01,folder02,folder03,folder04,folder05,folder06,folder07,folder08,folder09,folder10,folder11,folder12,folder13,folder14,folder15,folder16
TITLE ""
FILE "3Q_t_0247-0262.mp3" MP3
  TRACK 01 AUDIO
    TITLE "10:cjc041_2099"
    INDEX 01 00:00:00
  TRACK 02 AUDIO
    TITLE "0:"
    INDEX 01 00:01:26
  TRACK 03 AUDIO
    TITLE "11:cjc041_2100"
    INDEX 01 00:02:08
  TRACK 04 AUDIO
    TITLE "0:"
    INDEX 01 00:04:54
  TRACK 05 AUDIO
    TITLE "10:cjc041_2101"
    INDEX 01 00:05:34
  TRACK 06 AUDIO
    TITLE "0:"
    INDEX 01 00:06:45
  TRACK 07 AUDIO
    TITLE "11:cjc041_2102"
    INDEX 01 00:07:29
  TRACK 08 AUDIO
    TITLE "0:"
    INDEX 01 00:08:32
  TRACK 09 AUDIO
    TITLE "10:cjc041_2103"
    INDEX 01 00:09:06
  TRACK 10 AUDIO
    TITLE "0:"
    INDEX 01 00:10:25
  TRACK 11 AUDIO
    TITLE "11:cjc041_2104"
    INDEX 01 00:10:74
  TRACK 12 AUDIO
    TITLE "0:"
    INDEX 01 00:12:16
  TRACK 13 AUDIO
    TITLE "10:cjc041_2105"
    INDEX 01 00:12:69
  TRACK 14 AUDIO
    TITLE "0:"
    INDEX 01 00:14:02
  TRACK 15 AUDIO
    TITLE "11:cjc041_2106"
    INDEX 01 00:14:60
  TRACK 16 AUDIO
    TITLE "0:"
    INDEX 01 00:16:00
  TRACK 17 AUDIO
    TITLE "10:cjc041_2107"
    INDEX 01 00:16:57
  TRACK 18 AUDIO
    TITLE "0:"
    INDEX 01 00:17:70
  TRACK 19 AUDIO
    TITLE "11:cjc041_2108"
    INDEX 01 00:18:42
  TRACK 20 AUDIO
    TITLE "0:"
    INDEX 01 00:19:63
  TRACK 21 AUDIO
    TITLE "10:cjc041_2109"
    INDEX 01 00:20:37
  TRACK 22 AUDIO
    TITLE "0:"
    INDEX 01 00:21:51
  TRACK 23 AUDIO
    TITLE "11:cjc041_2110"
    INDEX 01 00:22:23
  TRACK 24 AUDIO
    TITLE "0:"
    INDEX 01 00:23:71
  TRACK 25 AUDIO
    TITLE "10:cjc041_2111"
    INDEX 01 00:24:49
  TRACK 26 AUDIO
    TITLE "0:"
    INDEX 01 00:25:62
  TRACK 27 AUDIO
    TITLE "11:cjc041_2112"
    INDEX 01 00:26:42
  TRACK 28 AUDIO
    TITLE "0:"
    INDEX 01 00:27:47
  TRACK 29 AUDIO
    TITLE "10:cjc041_2113"
    INDEX 01 00:28:25
  TRACK 30 AUDIO
    TITLE "0:"
    INDEX 01 00:29:44
  TRACK 31 AUDIO
    TITLE "11:cjc041_2114"
    INDEX 01 00:30:26
  TRACK 32 AUDIO
    TITLE "0:"
    INDEX 01 00:33:44
  TRACK 33 AUDIO
    TITLE "10:cjc041_2115"
    INDEX 01 00:34:18
  TRACK 34 AUDIO
    TITLE "0:"
    INDEX 01 00:35:39
  TRACK 35 AUDIO
    TITLE "11:cjc041_2116"
    INDEX 01 00:36:17
  TRACK 36 AUDIO
    TITLE "0:"
    INDEX 01 00:37:50
  TRACK 37 AUDIO
    TITLE "10:cjc041_2117"
    INDEX 01 00:38:28
  TRACK 38 AUDIO
    TITLE "0:"
    INDEX 01 00:39:35
  TRACK 39 AUDIO
    TITLE "11:cjc041_2118"
    INDEX 01 00:40:13
  TRACK 40 AUDIO
    TITLE "0:"
    INDEX 01 00:43:68
  TRACK 41 AUDIO
    TITLE "10:cjc041_2119"
    INDEX 01 00:44:52
  TRACK 42 AUDIO
    TITLE "0:"
    INDEX 01 00:45:69
  TRACK 43 AUDIO
    TITLE "11:cjc041_2120"
    INDEX 01 00:46:53
  TRACK 44 AUDIO
    TITLE "0:"
    INDEX 01 00:47:68
  TRACK 45 AUDIO
    TITLE "10:cjc041_2121"
    INDEX 01 00:48:49
  TRACK 46 AUDIO
    TITLE "0:"
    INDEX 01 00:49:63
  TRACK 47 AUDIO
    TITLE "11:cjc041_2122"
    INDEX 01 00:50:42
  TRACK 48 AUDIO
    TITLE "0:"
    INDEX 01 00:51:48
  TRACK 49 AUDIO
    TITLE "10:cjc041_2123"
    INDEX 01 00:52:32
  TRACK 50 AUDIO
    TITLE "0:"
    INDEX 01 00:53:51
  TRACK 51 AUDIO
    TITLE "11:cjc041_2124"
    INDEX 01 00:54:34
  TRACK 52 AUDIO
    TITLE "0:"
    INDEX 01 00:56:18
  TRACK 53 AUDIO
    TITLE "10:cjc041_2125"
    INDEX 01 00:56:69
  TRACK 54 AUDIO
    TITLE "0:"
    INDEX 01 00:58:11
  TRACK 55 AUDIO
    TITLE "11:cjc041_2126"
    INDEX 01 00:58:67
  TRACK 56 AUDIO
    TITLE "0:"
    INDEX 01 01:00:74
  TRACK 57 AUDIO
    TITLE "10:cjc041_2127"
    INDEX 01 01:01:56
  TRACK 58 AUDIO
    TITLE "0:"
    INDEX 01 01:03:08
  TRACK 59 AUDIO
    TITLE "11:cjc041_2128"
    INDEX 01 01:03:67
  TRACK 60 AUDIO
    TITLE "0:"
    INDEX 01 01:07:00
  TRACK 61 AUDIO
    TITLE "10:cjc041_2129"
    INDEX 01 01:07:57
  TRACK 62 AUDIO
    TITLE "0:"
    INDEX 01 01:09:03
  TRACK 63 AUDIO
    TITLE "11:cjc041_2130"
    INDEX 01 01:09:56
  TRACK 64 AUDIO
    TITLE "0:"
    INDEX 01 01:10:69
